// === Articulação: Hihat_Open2Bow ===

// --- Mic: Hihat ---
<group> off_by=1 seq_position=1 // Round-Robin: A
<region> sample=Hihat_Open2Bow_A_vel01_mic-Hihat.wav lovel=0 hivel=10
<region> sample=Hihat_Open2Bow_A_vel02_mic-Hihat.wav lovel=11 hivel=21
<region> sample=Hihat_Open2Bow_A_vel03_mic-Hihat.wav lovel=22 hivel=32
<region> sample=Hihat_Open2Bow_A_vel04_mic-Hihat.wav lovel=33 hivel=43
<region> sample=Hihat_Open2Bow_A_vel05_mic-Hihat.wav lovel=44 hivel=54
<region> sample=Hihat_Open2Bow_A_vel06_mic-Hihat.wav lovel=55 hivel=65
<region> sample=Hihat_Open2Bow_A_vel07_mic-Hihat.wav lovel=66 hivel=76
<region> sample=Hihat_Open2Bow_A_vel08_mic-Hihat.wav lovel=77 hivel=87
<region> sample=Hihat_Open2Bow_A_vel09_mic-Hihat.wav lovel=88 hivel=98
<region> sample=Hihat_Open2Bow_A_vel10_mic-Hihat.wav lovel=99 hivel=109
<region> sample=Hihat_Open2Bow_A_vel11_mic-Hihat.wav lovel=110 hivel=127
<group> off_by=1 seq_position=2 // Round-Robin: B
<region> sample=Hihat_Open2Bow_B_vel01_mic-Hihat.wav lovel=0 hivel=10
<region> sample=Hihat_Open2Bow_B_vel02_mic-Hihat.wav lovel=11 hivel=21
<region> sample=Hihat_Open2Bow_B_vel03_mic-Hihat.wav lovel=22 hivel=32
<region> sample=Hihat_Open2Bow_B_vel04_mic-Hihat.wav lovel=33 hivel=43
<region> sample=Hihat_Open2Bow_B_vel05_mic-Hihat.wav lovel=44 hivel=54
<region> sample=Hihat_Open2Bow_B_vel06_mic-Hihat.wav lovel=55 hivel=65
<region> sample=Hihat_Open2Bow_B_vel07_mic-Hihat.wav lovel=66 hivel=76
<region> sample=Hihat_Open2Bow_B_vel08_mic-Hihat.wav lovel=77 hivel=87
<region> sample=Hihat_Open2Bow_B_vel09_mic-Hihat.wav lovel=88 hivel=98
<region> sample=Hihat_Open2Bow_B_vel10_mic-Hihat.wav lovel=99 hivel=109
<region> sample=Hihat_Open2Bow_B_vel11_mic-Hihat.wav lovel=110 hivel=127

// --- Mic: Overhead_L ---
<group> off_by=1 seq_position=1 output=7 pan=-100 // Round-Robin: A
<region> sample=Hihat_Open2Bow_A_vel01_mic-Overhead_L.wav lovel=0 hivel=10
<region> sample=Hihat_Open2Bow_A_vel02_mic-Overhead_L.wav lovel=11 hivel=21
<region> sample=Hihat_Open2Bow_A_vel03_mic-Overhead_L.wav lovel=22 hivel=32
<region> sample=Hihat_Open2Bow_A_vel04_mic-Overhead_L.wav lovel=33 hivel=43
<region> sample=Hihat_Open2Bow_A_vel05_mic-Overhead_L.wav lovel=44 hivel=54
<region> sample=Hihat_Open2Bow_A_vel06_mic-Overhead_L.wav lovel=55 hivel=65
<region> sample=Hihat_Open2Bow_A_vel07_mic-Overhead_L.wav lovel=66 hivel=76
<region> sample=Hihat_Open2Bow_A_vel08_mic-Overhead_L.wav lovel=77 hivel=87
<region> sample=Hihat_Open2Bow_A_vel09_mic-Overhead_L.wav lovel=88 hivel=98
<region> sample=Hihat_Open2Bow_A_vel10_mic-Overhead_L.wav lovel=99 hivel=109
<region> sample=Hihat_Open2Bow_A_vel11_mic-Overhead_L.wav lovel=110 hivel=127
<group> off_by=1 seq_position=2 output=7 pan=-100 // Round-Robin: B
<region> sample=Hihat_Open2Bow_B_vel01_mic-Overhead_L.wav lovel=0 hivel=10
<region> sample=Hihat_Open2Bow_B_vel02_mic-Overhead_L.wav lovel=11 hivel=21
<region> sample=Hihat_Open2Bow_B_vel03_mic-Overhead_L.wav lovel=22 hivel=32
<region> sample=Hihat_Open2Bow_B_vel04_mic-Overhead_L.wav lovel=33 hivel=43
<region> sample=Hihat_Open2Bow_B_vel05_mic-Overhead_L.wav lovel=44 hivel=54
<region> sample=Hihat_Open2Bow_B_vel06_mic-Overhead_L.wav lovel=55 hivel=65
<region> sample=Hihat_Open2Bow_B_vel07_mic-Overhead_L.wav lovel=66 hivel=76
<region> sample=Hihat_Open2Bow_B_vel08_mic-Overhead_L.wav lovel=77 hivel=87
<region> sample=Hihat_Open2Bow_B_vel09_mic-Overhead_L.wav lovel=88 hivel=98
<region> sample=Hihat_Open2Bow_B_vel10_mic-Overhead_L.wav lovel=99 hivel=109
<region> sample=Hihat_Open2Bow_B_vel11_mic-Overhead_L.wav lovel=110 hivel=127

// --- Mic: Overhead_R ---
<group> off_by=1 seq_position=1 output=7 pan=100 // Round-Robin: A
<region> sample=Hihat_Open2Bow_A_vel01_mic-Overhead_R.wav lovel=0 hivel=10
<region> sample=Hihat_Open2Bow_A_vel02_mic-Overhead_R.wav lovel=11 hivel=21
<region> sample=Hihat_Open2Bow_A_vel03_mic-Overhead_R.wav lovel=22 hivel=32
<region> sample=Hihat_Open2Bow_A_vel04_mic-Overhead_R.wav lovel=33 hivel=43
<region> sample=Hihat_Open2Bow_A_vel05_mic-Overhead_R.wav lovel=44 hivel=54
<region> sample=Hihat_Open2Bow_A_vel06_mic-Overhead_R.wav lovel=55 hivel=65
<region> sample=Hihat_Open2Bow_A_vel07_mic-Overhead_R.wav lovel=66 hivel=76
<region> sample=Hihat_Open2Bow_A_vel08_mic-Overhead_R.wav lovel=77 hivel=87
<region> sample=Hihat_Open2Bow_A_vel09_mic-Overhead_R.wav lovel=88 hivel=98
<region> sample=Hihat_Open2Bow_A_vel10_mic-Overhead_R.wav lovel=99 hivel=109
<region> sample=Hihat_Open2Bow_A_vel11_mic-Overhead_R.wav lovel=110 hivel=127
<group> off_by=1 seq_position=2 output=7 pan=100 // Round-Robin: B
<region> sample=Hihat_Open2Bow_B_vel01_mic-Overhead_R.wav lovel=0 hivel=10
<region> sample=Hihat_Open2Bow_B_vel02_mic-Overhead_R.wav lovel=11 hivel=21
<region> sample=Hihat_Open2Bow_B_vel03_mic-Overhead_R.wav lovel=22 hivel=32
<region> sample=Hihat_Open2Bow_B_vel04_mic-Overhead_R.wav lovel=33 hivel=43
<region> sample=Hihat_Open2Bow_B_vel05_mic-Overhead_R.wav lovel=44 hivel=54
<region> sample=Hihat_Open2Bow_B_vel06_mic-Overhead_R.wav lovel=55 hivel=65
<region> sample=Hihat_Open2Bow_B_vel07_mic-Overhead_R.wav lovel=66 hivel=76
<region> sample=Hihat_Open2Bow_B_vel08_mic-Overhead_R.wav lovel=77 hivel=87
<region> sample=Hihat_Open2Bow_B_vel09_mic-Overhead_R.wav lovel=88 hivel=98
<region> sample=Hihat_Open2Bow_B_vel10_mic-Overhead_R.wav lovel=99 hivel=109
<region> sample=Hihat_Open2Bow_B_vel11_mic-Overhead_R.wav lovel=110 hivel=127
